{
  "asset": {
    "generator": "Khronos glTF Blender I/O v5.1.20",
    "version": "2.0"
  },
  "scene": 0,
  "scenes": [
    {
      "name": "Scene",
      "nodes": [
        0
      ]
    }
  ],
  "nodes": [
    {
      "mesh": 0,
      "name": "old_gas_mask"
    }
  ],
  "materials": [
    {
      "doubleSided": true,
      "name": "old_gas_mask",
      "normalTexture": {
        "index": 0
      },
      "pbrMetallicRoughness": {
        "baseColorTexture": {
          "index": 1
        },
        "metallicRoughnessTexture": {
          "index": 2
        }
      }
    }
  ],
  "meshes": [
    {
      "name": "Plane.008",
      "primitives": [
        {
          "attributes": {
            "POSITION": 0,
            "NORMAL": 1,
            "TEXCOORD_0": 2
          },
          "indices": 3,
          "material": 0
        }
      ]
    }
  ],
  "textures": [
    {
      "sampler": 0,
      "source": 0
    },
    {
      "sampler": 0,
      "source": 1
    },
    {
      "sampler": 0,
      "source": 2
    }
  ],
  "images": [
    {
      "mimeType": "image/jpeg",
      "name": "old_gas_mask_nor_gl",
      "uri": "textures/old_gas_mask_nor_gl_1k.jpg"
    },
    {
      "mimeType": "image/jpeg",
      "name": "old_gas_mask_diff",
      "uri": "textures/old_gas_mask_diff_1k.jpg"
    },
    {
      "mimeType": "image/jpeg",
      "name": "old_gas_mask_metal-old_gas_mask_rough",
      "uri": "textures/old_gas_mask_arm_1k.jpg"
    }
  ],
  "accessors": [
    {
      "bufferView": 0,
      "componentType": 5126,
      "count": 13175,
      "max": [
        0.10526277124881744,
        0.12097719311714172,
        0.18641869723796844
      ],
      "min": [
        -0.10526277124881744,
        -1.0046875476837158,
        -0.12230857461690903
      ],
      "type": "VEC3"
    },
    {
      "bufferView": 1,
      "componentType": 5126,
      "count": 13175,
      "type": "VEC3"
    },
    {
      "bufferView": 2,
      "componentType": 5126,
      "count": 13175,
      "type": "VEC2"
    },
    {
      "bufferView": 3,
      "componentType": 5123,
      "count": 56700,
      "type": "SCALAR"
    }
  ],
  "bufferViews": [
    {
      "buffer": 0,
      "byteLength": 158100,
      "byteOffset": 0,
      "target": 34962
    },
    {
      "buffer": 0,
      "byteLength": 158100,
      "byteOffset": 158100,
      "target": 34962
    },
    {
      "buffer": 0,
      "byteLength": 105400,
      "byteOffset": 316200,
      "target": 34962
    },
    {
      "buffer": 0,
      "byteLength": 113400,
      "byteOffset": 421600,
      "target": 34963
    }
  ],
  "samplers": [
    {
      "magFilter": 9729,
      "minFilter": 9987
    }
  ],
  "buffers": [
    {
      "byteLength": 535000,
      "uri": "old_gas_mask.bin"
    }
  ]
}