{
  "asset": {
    "generator": "Khronos glTF Blender I/O v5.1.20",
    "version": "2.0"
  },
  "scene": 0,
  "scenes": [
    {
      "name": "Scene",
      "nodes": [
        0,
        1,
        2,
        3
      ]
    }
  ],
  "nodes": [
    {
      "mesh": 0,
      "name": "rubber_boots_l",
      "translation": [
        -0.20000001788139343,
        0,
        0
      ]
    },
    {
      "mesh": 1,
      "name": "rubber_boots_r",
      "translation": [
        -0.4000000059604645,
        0,
        0
      ]
    },
    {
      "mesh": 2,
      "name": "rubber_boots_dirty_l",
      "translation": [
        0.40000003576278687,
        0,
        0
      ]
    },
    {
      "mesh": 3,
      "name": "rubber_boots_dirt_r",
      "translation": [
        0.20000001788139343,
        0,
        0
      ]
    }
  ],
  "materials": [
    {
      "doubleSided": true,
      "name": "rubber_boots",
      "normalTexture": {
        "index": 0
      },
      "pbrMetallicRoughness": {
        "baseColorTexture": {
          "index": 1
        },
        "metallicFactor": 0,
        "metallicRoughnessTexture": {
          "index": 2
        }
      }
    },
    {
      "doubleSided": true,
      "name": "rubber_boots_dirty",
      "normalTexture": {
        "index": 3
      },
      "pbrMetallicRoughness": {
        "baseColorTexture": {
          "index": 4
        },
        "metallicFactor": 0,
        "metallicRoughnessTexture": {
          "index": 5
        }
      }
    }
  ],
  "meshes": [
    {
      "name": "rubber_boots_LOD0.L",
      "primitives": [
        {
          "attributes": {
            "POSITION": 0,
            "NORMAL": 1,
            "TEXCOORD_0": 2
          },
          "indices": 3,
          "material": 0
        }
      ]
    },
    {
      "name": "rubber_boots_LOD0.R",
      "primitives": [
        {
          "attributes": {
            "POSITION": 4,
            "NORMAL": 5,
            "TEXCOORD_0": 6
          },
          "indices": 7,
          "material": 0
        }
      ]
    },
    {
      "name": "rubber_boots_LOD0.L",
      "primitives": [
        {
          "attributes": {
            "POSITION": 0,
            "NORMAL": 1,
            "TEXCOORD_0": 2
          },
          "indices": 3,
          "material": 1
        }
      ]
    },
    {
      "name": "rubber_boots_LOD0.R",
      "primitives": [
        {
          "attributes": {
            "POSITION": 4,
            "NORMAL": 5,
            "TEXCOORD_0": 6
          },
          "indices": 7,
          "material": 1
        }
      ]
    }
  ],
  "textures": [
    {
      "sampler": 0,
      "source": 0
    },
    {
      "sampler": 0,
      "source": 1
    },
    {
      "sampler": 0,
      "source": 2
    },
    {
      "sampler": 0,
      "source": 3
    },
    {
      "sampler": 0,
      "source": 4
    },
    {
      "sampler": 0,
      "source": 5
    }
  ],
  "images": [
    {
      "mimeType": "image/jpeg",
      "name": "rubber_boots_nor_gl",
      "uri": "textures/rubber_boots_nor_gl_1k.jpg"
    },
    {
      "mimeType": "image/jpeg",
      "name": "rubber_boots_diff",
      "uri": "textures/rubber_boots_diff_1k.jpg"
    },
    {
      "mimeType": "image/jpeg",
      "name": "rubber_boots_rough",
      "uri": "textures/rubber_boots_arm_1k.jpg"
    },
    {
      "mimeType": "image/jpeg",
      "name": "rubber_boots_dirty_nor_gl",
      "uri": "textures/rubber_boots_dirty_nor_gl_1k.jpg"
    },
    {
      "mimeType": "image/jpeg",
      "name": "rubber_boots_dirty_diff",
      "uri": "textures/rubber_boots_dirty_diff_1k.jpg"
    },
    {
      "mimeType": "image/jpeg",
      "name": "rubber_boots_dirty_rough",
      "uri": "textures/rubber_boots_dirty_arm_1k.jpg"
    }
  ],
  "accessors": [
    {
      "bufferView": 0,
      "componentType": 5126,
      "count": 7577,
      "max": [
        0.045328427106142044,
        0.37276914715766907,
        0.13233305513858795
      ],
      "min": [
        -0.04595143347978592,
        0,
        -0.13387344777584076
      ],
      "type": "VEC3"
    },
    {
      "bufferView": 1,
      "componentType": 5126,
      "count": 7577,
      "type": "VEC3"
    },
    {
      "bufferView": 2,
      "componentType": 5126,
      "count": 7577,
      "type": "VEC2"
    },
    {
      "bufferView": 3,
      "componentType": 5123,
      "count": 42096,
      "type": "SCALAR"
    },
    {
      "bufferView": 4,
      "componentType": 5126,
      "count": 7577,
      "max": [
        0.04595143347978592,
        0.3727691173553467,
        0.13233305513858795
      ],
      "min": [
        -0.04532841220498085,
        0,
        -0.13387344777584076
      ],
      "type": "VEC3"
    },
    {
      "bufferView": 5,
      "componentType": 5126,
      "count": 7577,
      "type": "VEC3"
    },
    {
      "bufferView": 6,
      "componentType": 5126,
      "count": 7577,
      "type": "VEC2"
    },
    {
      "bufferView": 7,
      "componentType": 5123,
      "count": 42096,
      "type": "SCALAR"
    }
  ],
  "bufferViews": [
    {
      "buffer": 0,
      "byteLength": 90924,
      "byteOffset": 0,
      "target": 34962
    },
    {
      "buffer": 0,
      "byteLength": 90924,
      "byteOffset": 90924,
      "target": 34962
    },
    {
      "buffer": 0,
      "byteLength": 60616,
      "byteOffset": 181848,
      "target": 34962
    },
    {
      "buffer": 0,
      "byteLength": 84192,
      "byteOffset": 242464,
      "target": 34963
    },
    {
      "buffer": 0,
      "byteLength": 90924,
      "byteOffset": 326656,
      "target": 34962
    },
    {
      "buffer": 0,
      "byteLength": 90924,
      "byteOffset": 417580,
      "target": 34962
    },
    {
      "buffer": 0,
      "byteLength": 60616,
      "byteOffset": 508504,
      "target": 34962
    },
    {
      "buffer": 0,
      "byteLength": 84192,
      "byteOffset": 569120,
      "target": 34963
    }
  ],
  "samplers": [
    {
      "magFilter": 9729,
      "minFilter": 9987
    }
  ],
  "buffers": [
    {
      "byteLength": 653312,
      "uri": "rubber_boots.bin"
    }
  ]
}