{
  "asset": {
    "generator": "Khronos glTF Blender I/O v3.2.43",
    "version": "2.0"
  },
  "scene": 0,
  "scenes": [
    {
      "name": "Scene",
      "nodes": [
        0
      ]
    }
  ],
  "nodes": [
    {
      "mesh": 0,
      "name": "lateral_sea_marker"
    }
  ],
  "materials": [
    {
      "doubleSided": true,
      "name": "lateral_sea_marker",
      "normalTexture": {
        "index": 0
      },
      "pbrMetallicRoughness": {
        "baseColorTexture": {
          "index": 1
        },
        "metallicRoughnessTexture": {
          "index": 2
        }
      }
    }
  ],
  "meshes": [
    {
      "name": "Cylinder.001",
      "primitives": [
        {
          "attributes": {
            "POSITION": 0,
            "NORMAL": 1,
            "TEXCOORD_0": 2
          },
          "indices": 3,
          "material": 0
        }
      ]
    }
  ],
  "textures": [
    {
      "sampler": 0,
      "source": 0
    },
    {
      "sampler": 0,
      "source": 1
    },
    {
      "sampler": 0,
      "source": 2
    }
  ],
  "images": [
    {
      "mimeType": "image/jpeg",
      "name": "lateral_sea_marker_nor_gl",
      "uri": "textures/lateral_sea_marker_nor_gl_1k.jpg"
    },
    {
      "mimeType": "image/jpeg",
      "name": "lateral_sea_marker_diff",
      "uri": "textures/lateral_sea_marker_diff_1k.jpg"
    },
    {
      "mimeType": "image/jpeg",
      "name": "lateral_sea_marker_metal-lateral_sea_marker_rough",
      "uri": "textures/lateral_sea_marker_arm_1k.jpg"
    }
  ],
  "accessors": [
    {
      "bufferView": 0,
      "componentType": 5126,
      "count": 11727,
      "max": [
        1.5024018287658691,
        5.556872367858887,
        1.5024023056030273
      ],
      "min": [
        -1.5024020671844482,
        -1.2818344831466675,
        -1.502402424812317
      ],
      "type": "VEC3"
    },
    {
      "bufferView": 1,
      "componentType": 5126,
      "count": 11727,
      "type": "VEC3"
    },
    {
      "bufferView": 2,
      "componentType": 5126,
      "count": 11727,
      "type": "VEC2"
    },
    {
      "bufferView": 3,
      "componentType": 5123,
      "count": 39042,
      "type": "SCALAR"
    }
  ],
  "bufferViews": [
    {
      "buffer": 0,
      "byteLength": 140724,
      "byteOffset": 0
    },
    {
      "buffer": 0,
      "byteLength": 140724,
      "byteOffset": 140724
    },
    {
      "buffer": 0,
      "byteLength": 93816,
      "byteOffset": 281448
    },
    {
      "buffer": 0,
      "byteLength": 78084,
      "byteOffset": 375264
    }
  ],
  "samplers": [
    {
      "magFilter": 9729,
      "minFilter": 9987
    }
  ],
  "buffers": [
    {
      "byteLength": 453348,
      "uri": "lateral_sea_marker.bin"
    }
  ]
}