{
  "asset": {
    "generator": "Khronos glTF Blender I/O v4.4.56",
    "version": "2.0"
  },
  "scene": 0,
  "scenes": [
    {
      "name": "Scene",
      "nodes": [
        0
      ]
    }
  ],
  "nodes": [
    {
      "mesh": 0,
      "name": "metal_detector",
      "rotation": [
        0.6265249848365784,
        0.659974992275238,
        -0.26776590943336487,
        0.316545307636261
      ]
    }
  ],
  "materials": [
    {
      "doubleSided": true,
      "emissiveFactor": [
        1,
        1,
        1
      ],
      "emissiveTexture": {
        "index": 0
      },
      "name": "metal_detector",
      "normalTexture": {
        "index": 1
      },
      "pbrMetallicRoughness": {
        "baseColorTexture": {
          "index": 2
        },
        "metallicRoughnessTexture": {
          "index": 3
        }
      }
    }
  ],
  "meshes": [
    {
      "name": "Cylinder.009",
      "primitives": [
        {
          "attributes": {
            "POSITION": 0,
            "NORMAL": 1,
            "TEXCOORD_0": 2
          },
          "indices": 3,
          "material": 0
        }
      ]
    }
  ],
  "textures": [
    {
      "sampler": 0,
      "source": 0
    },
    {
      "sampler": 0,
      "source": 1
    },
    {
      "sampler": 0,
      "source": 2
    },
    {
      "sampler": 0,
      "source": 3
    }
  ],
  "images": [
    {
      "mimeType": "image/jpeg",
      "name": "metal_detector_emissive",
      "uri": "textures/metal_detector_emissive_1k.jpg"
    },
    {
      "mimeType": "image/jpeg",
      "name": "metal_detector_nor_gl",
      "uri": "textures/metal_detector_nor_gl_1k.jpg"
    },
    {
      "mimeType": "image/jpeg",
      "name": "metal_detector_diff",
      "uri": "textures/metal_detector_diff_1k.jpg"
    },
    {
      "mimeType": "image/jpeg",
      "name": "metal_detector_metal-metal_detector_rough",
      "uri": "textures/metal_detector_arm_1k.jpg"
    }
  ],
  "accessors": [
    {
      "bufferView": 0,
      "componentType": 5126,
      "count": 13399,
      "max": [
        0.26525020599365234,
        0.08129391819238663,
        0.40103763341903687
      ],
      "min": [
        -0.9300451278686523,
        -0.15629272162914276,
        -0.02433401346206665
      ],
      "type": "VEC3"
    },
    {
      "bufferView": 1,
      "componentType": 5126,
      "count": 13399,
      "type": "VEC3"
    },
    {
      "bufferView": 2,
      "componentType": 5126,
      "count": 13399,
      "type": "VEC2"
    },
    {
      "bufferView": 3,
      "componentType": 5123,
      "count": 46554,
      "type": "SCALAR"
    }
  ],
  "bufferViews": [
    {
      "buffer": 0,
      "byteLength": 160788,
      "byteOffset": 0,
      "target": 34962
    },
    {
      "buffer": 0,
      "byteLength": 160788,
      "byteOffset": 160788,
      "target": 34962
    },
    {
      "buffer": 0,
      "byteLength": 107192,
      "byteOffset": 321576,
      "target": 34962
    },
    {
      "buffer": 0,
      "byteLength": 93108,
      "byteOffset": 428768,
      "target": 34963
    }
  ],
  "samplers": [
    {
      "magFilter": 9729,
      "minFilter": 9987
    }
  ],
  "buffers": [
    {
      "byteLength": 521876,
      "uri": "metal_detector.bin"
    }
  ]
}