{
  "asset": {
    "generator": "Khronos glTF Blender I/O v3.3.32",
    "version": "2.0"
  },
  "scene": 0,
  "scenes": [
    {
      "name": "Scene",
      "nodes": [
        0
      ]
    }
  ],
  "nodes": [
    {
      "mesh": 0,
      "name": "picke_dirty_01"
    }
  ],
  "materials": [
    {
      "doubleSided": true,
      "name": "picke_dirty_01",
      "normalTexture": {
        "index": 0
      },
      "pbrMetallicRoughness": {
        "baseColorTexture": {
          "index": 1
        },
        "metallicRoughnessTexture": {
          "index": 2
        }
      }
    }
  ],
  "meshes": [
    {
      "name": "Cylinder",
      "primitives": [
        {
          "attributes": {
            "POSITION": 0,
            "NORMAL": 1,
            "TEXCOORD_0": 2
          },
          "indices": 3,
          "material": 0
        }
      ]
    }
  ],
  "textures": [
    {
      "sampler": 0,
      "source": 0
    },
    {
      "sampler": 0,
      "source": 1
    },
    {
      "sampler": 0,
      "source": 2
    }
  ],
  "images": [
    {
      "mimeType": "image/jpeg",
      "name": "picke_dirty_01_nor_gl",
      "uri": "textures/picke_dirty_01_nor_gl_1k.jpg"
    },
    {
      "mimeType": "image/jpeg",
      "name": "picke_dirty_01_diff",
      "uri": "textures/picke_dirty_01_diff_1k.jpg"
    },
    {
      "mimeType": "image/jpeg",
      "name": "picke_dirty_01_metal-picke_dirty_01_rough",
      "uri": "textures/picke_dirty_01_arm_1k.jpg"
    }
  ],
  "accessors": [
    {
      "bufferView": 0,
      "componentType": 5126,
      "count": 3578,
      "max": [
        0.28463637828826904,
        0.761164665222168,
        0.046374958008527756
      ],
      "min": [
        -0.26515573263168335,
        -0.3544367849826813,
        -0.02273576520383358
      ],
      "type": "VEC3"
    },
    {
      "bufferView": 1,
      "componentType": 5126,
      "count": 3578,
      "type": "VEC3"
    },
    {
      "bufferView": 2,
      "componentType": 5126,
      "count": 3578,
      "type": "VEC2"
    },
    {
      "bufferView": 3,
      "componentType": 5123,
      "count": 18588,
      "type": "SCALAR"
    }
  ],
  "bufferViews": [
    {
      "buffer": 0,
      "byteLength": 42936,
      "byteOffset": 0,
      "target": 34962
    },
    {
      "buffer": 0,
      "byteLength": 42936,
      "byteOffset": 42936,
      "target": 34962
    },
    {
      "buffer": 0,
      "byteLength": 28624,
      "byteOffset": 85872,
      "target": 34962
    },
    {
      "buffer": 0,
      "byteLength": 37176,
      "byteOffset": 114496,
      "target": 34963
    }
  ],
  "samplers": [
    {
      "magFilter": 9729,
      "minFilter": 9987
    }
  ],
  "buffers": [
    {
      "byteLength": 151672,
      "uri": "picke_dirty_01.bin"
    }
  ]
}