{
  "asset": {
    "generator": "Khronos glTF Blender I/O v5.1.18",
    "version": "2.0"
  },
  "extensionsUsed": [
    "KHR_materials_emissive_strength"
  ],
  "scene": 0,
  "scenes": [
    {
      "name": "Scene",
      "nodes": [
        0
      ]
    }
  ],
  "nodes": [
    {
      "mesh": 0,
      "name": "ocean_buoy"
    }
  ],
  "materials": [
    {
      "doubleSided": true,
      "emissiveFactor": [
        1,
        1,
        1
      ],
      "emissiveTexture": {
        "index": 0
      },
      "extensions": {
        "KHR_materials_emissive_strength": {
          "emissiveStrength": 10
        }
      },
      "name": "buoy",
      "normalTexture": {
        "index": 1
      },
      "pbrMetallicRoughness": {
        "baseColorTexture": {
          "index": 2
        },
        "metallicRoughnessTexture": {
          "index": 3
        }
      }
    }
  ],
  "meshes": [
    {
      "name": "Plane.061",
      "primitives": [
        {
          "attributes": {
            "POSITION": 0,
            "NORMAL": 1,
            "TEXCOORD_0": 2
          },
          "indices": 3,
          "material": 0
        }
      ]
    }
  ],
  "textures": [
    {
      "sampler": 0,
      "source": 0
    },
    {
      "sampler": 0,
      "source": 1
    },
    {
      "sampler": 0,
      "source": 2
    },
    {
      "sampler": 0,
      "source": 3
    }
  ],
  "images": [
    {
      "mimeType": "image/jpeg",
      "name": "ocean_buoy_emission",
      "uri": "textures/ocean_buoy_emission_1k.jpg"
    },
    {
      "mimeType": "image/jpeg",
      "name": "ocean_buoy_nor_gl",
      "uri": "textures/ocean_buoy_nor_gl_1k.jpg"
    },
    {
      "mimeType": "image/jpeg",
      "name": "ocean_buoy_diff",
      "uri": "textures/ocean_buoy_diff_1k.jpg"
    },
    {
      "mimeType": "image/jpeg",
      "name": "ocean_buoy_metal-ocean_buoy_rough",
      "uri": "textures/ocean_buoy_arm_1k.jpg"
    }
  ],
  "accessors": [
    {
      "bufferView": 0,
      "componentType": 5126,
      "count": 11025,
      "max": [
        0.5905362963676453,
        1.84686279296875,
        0.4760739803314209
      ],
      "min": [
        -0.4760739803314209,
        -0.8093715310096741,
        -0.4760739803314209
      ],
      "type": "VEC3"
    },
    {
      "bufferView": 1,
      "componentType": 5126,
      "count": 11025,
      "type": "VEC3"
    },
    {
      "bufferView": 2,
      "componentType": 5126,
      "count": 11025,
      "type": "VEC2"
    },
    {
      "bufferView": 3,
      "componentType": 5123,
      "count": 36720,
      "type": "SCALAR"
    }
  ],
  "bufferViews": [
    {
      "buffer": 0,
      "byteLength": 132300,
      "byteOffset": 0,
      "target": 34962
    },
    {
      "buffer": 0,
      "byteLength": 132300,
      "byteOffset": 132300,
      "target": 34962
    },
    {
      "buffer": 0,
      "byteLength": 88200,
      "byteOffset": 264600,
      "target": 34962
    },
    {
      "buffer": 0,
      "byteLength": 73440,
      "byteOffset": 352800,
      "target": 34963
    }
  ],
  "samplers": [
    {
      "magFilter": 9729,
      "minFilter": 9987
    }
  ],
  "buffers": [
    {
      "byteLength": 426240,
      "uri": "ocean_buoy.bin"
    }
  ]
}