{
  "asset": {
    "generator": "Khronos glTF Blender I/O v5.1.20",
    "version": "2.0"
  },
  "scene": 0,
  "scenes": [
    {
      "name": "Scene",
      "nodes": [
        0
      ]
    }
  ],
  "nodes": [
    {
      "mesh": 0,
      "name": "fishermans_hat"
    }
  ],
  "materials": [
    {
      "doubleSided": true,
      "name": "fishermans_hat",
      "normalTexture": {
        "index": 0
      },
      "pbrMetallicRoughness": {
        "baseColorTexture": {
          "index": 1
        },
        "metallicRoughnessTexture": {
          "index": 2
        }
      }
    }
  ],
  "meshes": [
    {
      "name": "Cylinder.002",
      "primitives": [
        {
          "attributes": {
            "POSITION": 0,
            "NORMAL": 1,
            "TEXCOORD_0": 2
          },
          "indices": 3,
          "material": 0
        }
      ]
    }
  ],
  "textures": [
    {
      "sampler": 0,
      "source": 0
    },
    {
      "sampler": 0,
      "source": 1
    },
    {
      "sampler": 0,
      "source": 2
    }
  ],
  "images": [
    {
      "mimeType": "image/jpeg",
      "name": "fishermans_hat_nor_gl",
      "uri": "textures/fishermans_hat_nor_gl_1k.jpg"
    },
    {
      "mimeType": "image/jpeg",
      "name": "fishermans_hat_diff",
      "uri": "textures/fishermans_hat_diff_1k.jpg"
    },
    {
      "mimeType": "image/jpeg",
      "name": "fishermans_hat_metal-fishermans_hat_rough",
      "uri": "textures/fishermans_hat_arm_1k.jpg"
    }
  ],
  "accessors": [
    {
      "bufferView": 0,
      "componentType": 5126,
      "count": 6696,
      "max": [
        0.16136017441749573,
        0.08951406180858612,
        0.17771895229816437
      ],
      "min": [
        -0.16224108636379242,
        -0.03443446010351181,
        -0.1722601354122162
      ],
      "type": "VEC3"
    },
    {
      "bufferView": 1,
      "componentType": 5126,
      "count": 6696,
      "type": "VEC3"
    },
    {
      "bufferView": 2,
      "componentType": 5126,
      "count": 6696,
      "type": "VEC2"
    },
    {
      "bufferView": 3,
      "componentType": 5123,
      "count": 30912,
      "type": "SCALAR"
    }
  ],
  "bufferViews": [
    {
      "buffer": 0,
      "byteLength": 80352,
      "byteOffset": 0,
      "target": 34962
    },
    {
      "buffer": 0,
      "byteLength": 80352,
      "byteOffset": 80352,
      "target": 34962
    },
    {
      "buffer": 0,
      "byteLength": 53568,
      "byteOffset": 160704,
      "target": 34962
    },
    {
      "buffer": 0,
      "byteLength": 61824,
      "byteOffset": 214272,
      "target": 34963
    }
  ],
  "samplers": [
    {
      "magFilter": 9729,
      "minFilter": 9987
    }
  ],
  "buffers": [
    {
      "byteLength": 276096,
      "uri": "fishermans_hat.bin"
    }
  ]
}