{
  "asset": {
    "generator": "Khronos glTF Blender I/O v3.6.27",
    "version": "2.0"
  },
  "scene": 0,
  "scenes": [
    {
      "name": "Scene",
      "nodes": [
        0
      ]
    }
  ],
  "nodes": [
    {
      "mesh": 0,
      "name": "wooden_handle_saber"
    }
  ],
  "materials": [
    {
      "doubleSided": true,
      "name": "wooden_handle_saber",
      "normalTexture": {
        "index": 0
      },
      "pbrMetallicRoughness": {
        "baseColorTexture": {
          "index": 1
        },
        "metallicRoughnessTexture": {
          "index": 2
        }
      }
    }
  ],
  "meshes": [
    {
      "name": "Cylinder.001",
      "primitives": [
        {
          "attributes": {
            "POSITION": 0,
            "NORMAL": 1,
            "TEXCOORD_0": 2
          },
          "indices": 3,
          "material": 0
        }
      ]
    }
  ],
  "textures": [
    {
      "sampler": 0,
      "source": 0
    },
    {
      "sampler": 0,
      "source": 1
    },
    {
      "sampler": 0,
      "source": 2
    }
  ],
  "images": [
    {
      "mimeType": "image/jpeg",
      "name": "wooden_handle_saber_nor_gl",
      "uri": "textures/wooden_handle_saber_nor_gl_1k.jpg"
    },
    {
      "mimeType": "image/jpeg",
      "name": "wooden_handle_saber_diff",
      "uri": "textures/wooden_handle_saber_diff_1k.jpg"
    },
    {
      "mimeType": "image/jpeg",
      "name": "wooden_handle_saber_metal-wooden_handle_saber_rough",
      "uri": "textures/wooden_handle_saber_arm_1k.jpg"
    }
  ],
  "accessors": [
    {
      "bufferView": 0,
      "componentType": 5126,
      "count": 2675,
      "max": [
        0.012846441939473152,
        0.839275062084198,
        0.057083677500486374
      ],
      "min": [
        -0.012846197001636028,
        -0.09618058800697327,
        -0.06570485979318619
      ],
      "type": "VEC3"
    },
    {
      "bufferView": 1,
      "componentType": 5126,
      "count": 2675,
      "type": "VEC3"
    },
    {
      "bufferView": 2,
      "componentType": 5126,
      "count": 2675,
      "type": "VEC2"
    },
    {
      "bufferView": 3,
      "componentType": 5123,
      "count": 12093,
      "type": "SCALAR"
    }
  ],
  "bufferViews": [
    {
      "buffer": 0,
      "byteLength": 32100,
      "byteOffset": 0,
      "target": 34962
    },
    {
      "buffer": 0,
      "byteLength": 32100,
      "byteOffset": 32100,
      "target": 34962
    },
    {
      "buffer": 0,
      "byteLength": 21400,
      "byteOffset": 64200,
      "target": 34962
    },
    {
      "buffer": 0,
      "byteLength": 24186,
      "byteOffset": 85600,
      "target": 34963
    }
  ],
  "samplers": [
    {
      "magFilter": 9729,
      "minFilter": 9987
    }
  ],
  "buffers": [
    {
      "byteLength": 109788,
      "uri": "wooden_handle_saber.bin"
    }
  ]
}